<svg xmlns="http://www.w3.org/2000/svg" viewBox="0 0 92.28 53.85"><defs><style>.cls-1{fill:#fff;}</style></defs><g id="Layer_2" data-name="Layer 2"><g id="Layer_1-2" data-name="Layer 1"><path class="cls-1" d="M9.22,18.38a5.77,5.77,0,0,0-2.94-.83C4.28,17.55,3,18.9,3,21.1S4.2,24.7,6.3,24.7a5.62,5.62,0,0,0,3.07-.94L10,26.38a8.75,8.75,0,0,1-3.81.84c-3.72,0-6.17-2.14-6.17-6C0,17.42,2.44,15,6.27,15a8.93,8.93,0,0,1,3.84.87l-.89,2.47Z"/><path class="cls-1" d="M16.73,17.6l-1.54,4.56h3L16.73,17.6Zm5.94,9.34H19.73l-.86-2.48H14.56l-.84,2.48H10.78l4.13-11.62h3.7l4.06,11.62Z"/><path class="cls-1" d="M28.21,20.91c1.26-.09,1.95-.61,1.95-1.73s-.71-1.52-2.2-1.52H26.72V21l1.49,0Zm-1.44,6H23.82V15.32h4.67c3.08,0,4.7,1.43,4.7,3.68a3.4,3.4,0,0,1-2.38,3.34l3,4.6H30.46L28.13,23l-1.36.11v3.8Z"/><path class="cls-1" d="M4,40.86A3.26,3.26,0,0,1,.5,37.26V31.37h.92v5.77C1.42,38.91,2.3,40,4,40s2.55-1,2.55-2.85V31.37H7.5v5.74c0,2.31-1.2,3.75-3.52,3.75Z"/><polygon class="cls-1" points="16.32 31.37 17.25 31.37 17.25 40.76 16.22 40.76 10.89 32.71 10.89 40.67 9.97 40.67 9.97 31.37 11.04 31.37 16.32 39.35 16.32 31.37 16.32 31.37"/><polygon class="cls-1" points="19.97 40.67 19.97 31.37 20.9 31.37 20.9 40.67 19.97 40.67 19.97 40.67"/><polygon class="cls-1" points="27.23 40.67 26.11 40.67 22.7 31.37 23.67 31.37 26.69 39.69 29.7 31.37 30.66 31.37 27.23 40.67 27.23 40.67"/><polygon class="cls-1" points="32.36 40.67 32.36 31.37 37.98 31.37 37.98 32.25 33.31 32.25 33.31 35.58 37.21 35.58 37.21 36.44 33.31 36.44 33.31 39.79 37.98 39.79 37.98 40.67 32.36 40.67 32.36 40.67"/><path class="cls-1" d="M42.69,36c1.24,0,2.31-.73,2.31-1.95s-.91-1.86-2.53-1.86H41V36.1L42.69,36ZM41,40.67h-1v-9.3h2.5c2.29,0,3.38,1.06,3.38,2.68a2.72,2.72,0,0,1-2.16,2.62l2.58,4h-1.1l-2.38-3.84L41,37v3.72Z"/><path class="cls-1" d="M52.85,38.26c0-1.09-.89-1.52-2.35-1.95s-2.71-1-2.71-2.6c0-1.48,1.25-2.53,3-2.53a5.17,5.17,0,0,1,2.8.8l-.35.84A4.47,4.47,0,0,0,50.78,32c-1.39,0-2.06.75-2.06,1.59,0,1,.92,1.42,2.35,1.86s2.69,1,2.69,2.69-1.28,2.68-3.14,2.68a5.54,5.54,0,0,1-3-.86l.34-.85a4.65,4.65,0,0,0,2.68.86c1.29,0,2.2-.77,2.2-1.75Z"/><polygon class="cls-1" points="55.93 40.67 55.93 31.37 56.87 31.37 56.87 40.67 55.93 40.67 55.93 40.67"/><polygon class="cls-1" points="62.79 32.27 62.79 40.67 61.84 40.67 61.84 32.27 58.56 32.27 58.56 31.37 66.06 31.37 66.06 32.27 62.79 32.27 62.79 32.27"/><polygon class="cls-1" points="71.19 36.94 71.19 40.67 70.24 40.67 70.24 36.94 67 31.37 68.07 31.37 70.74 36 73.38 31.37 74.43 31.37 71.19 36.94 71.19 36.94"/><path class="cls-1" d="M15.63,45.3l-1.78,4.83H17.4L15.63,45.3Zm4,8.36h-1l-1-2.67H13.52l-1,2.67h-1l3.53-9.3h1.11l3.47,9.3Z"/><path class="cls-1" d="M23.86,49c1.23,0,2.3-.73,2.3-2s-.9-1.86-2.52-1.86H22.19v3.87L23.86,49Zm-1.67,4.63h-1v-9.3h2.5c2.29,0,3.38,1.06,3.38,2.68A2.74,2.74,0,0,1,25,49.66l2.57,4h-1.1l-2.38-3.84-1.86.12v3.72Z"/><polygon class="cls-1" points="32.32 45.25 32.32 53.66 31.37 53.66 31.37 45.25 28.1 45.25 28.1 44.36 35.59 44.36 35.59 45.25 32.32 45.25 32.32 45.25"/><polygon class="cls-1" points="40.65 50.58 40.65 53.24 39.83 53.24 39.83 50.58 37.21 50.58 37.26 49.76 39.83 49.76 39.83 47.11 40.65 47.11 40.65 49.76 43.19 49.76 43.24 50.58 40.65 50.58 40.65 50.58"/><path class="cls-1" d="M50,45.24H48.43v7.54H50c2.38,0,4-1.22,4-3.76,0-2.37-1.49-3.78-4-3.78Zm0,8.42H47.48v-9.3H50c3,0,4.92,1.84,4.92,4.58,0,2.93-1.83,4.72-5,4.72Z"/><polygon class="cls-1" points="56.76 53.66 56.76 44.36 62.38 44.36 62.38 45.24 57.71 45.24 57.71 48.57 61.61 48.57 61.61 49.43 57.71 49.43 57.71 52.78 62.38 52.78 62.38 53.66 56.76 53.66 56.76 53.66"/><path class="cls-1" d="M69.06,51.25c0-1.09-.89-1.52-2.35-2C65.4,48.91,64,48.35,64,46.7c0-1.48,1.25-2.53,3-2.53a5,5,0,0,1,2.79.8l-.34.83A4.57,4.57,0,0,0,67,45c-1.4,0-2.07.74-2.07,1.59,0,1,.92,1.41,2.35,1.86s2.7,1,2.7,2.69-1.28,2.68-3.14,2.68a5.6,5.6,0,0,1-3-.86l.34-.85a4.63,4.63,0,0,0,2.68.86c1.29,0,2.2-.77,2.2-1.75Z"/><polygon class="cls-1" points="72.14 53.66 72.14 44.36 73.07 44.36 73.07 53.66 72.14 53.66 72.14 53.66"/><path class="cls-1" d="M79.59,53.85C76.9,53.85,75.1,52,75.1,49s1.88-4.86,4.49-4.86a6,6,0,0,1,2.94.77l-.31.86A5.19,5.19,0,0,0,79.57,45c-2,0-3.51,1.44-3.51,4s1.42,4,3.54,4a4.57,4.57,0,0,0,2.23-.57V49.89H79.14V49h3.62v3.9a5.93,5.93,0,0,1-3.17.92Z"/><polygon class="cls-1" points="91.35 44.36 92.28 44.36 92.28 53.75 91.25 53.75 85.92 45.7 85.92 53.66 85 53.66 85 44.36 86.07 44.36 91.35 52.33 91.35 44.36 91.35 44.36"/><path class="cls-1" d="M2.77,47.42a1.68,1.68,0,0,0-1.68,1.85,1.7,1.7,0,1,0,1.68-1.85Zm0,4.3A2.26,2.26,0,0,1,.45,49.3a2.32,2.32,0,0,1,2.33-2.45,2.26,2.26,0,0,1,2.34,2.42,2.33,2.33,0,0,1-2.34,2.45Z"/><polygon class="cls-1" points="6.13 46.97 9 46.97 9 47.56 6.76 47.56 6.76 49.07 8.61 49.07 8.61 49.66 6.76 49.66 6.76 51.61 6.13 51.61 6.13 46.97 6.13 46.97"/><path class="cls-1" d="M39.47,20.91c1.27-.09,2-.61,2-1.73s-.71-1.52-2.2-1.52H38V21l1.48,0Zm-1.43,6H35.09V15.32h4.66c3.09,0,4.71,1.43,4.71,3.68a3.4,3.4,0,0,1-2.38,3.34l3,4.6H41.72L39.4,23,38,23.14v3.8Z"/><polygon class="cls-1" points="0.5 11.62 0.5 0 8.99 0 8.99 2.38 3.4 2.38 3.4 4.61 7.9 4.61 7.9 6.97 3.4 6.97 3.4 9.24 8.99 9.24 8.99 11.62 0.5 11.62 0.5 11.62"/><polygon class="cls-1" points="22.09 2.66 19.54 11.43 16.38 11.43 13.83 2.68 13.76 11.62 11.01 11.62 11.41 0 15.6 0 18.01 8.72 20.43 0 24.56 0 24.95 11.62 22.14 11.62 22.09 2.66 22.09 2.66"/><polygon class="cls-1" points="27.23 11.62 27.23 0 30.18 0 30.18 11.62 27.23 11.62 27.23 11.62"/><polygon class="cls-1" points="32.62 11.62 32.62 0 35.58 0 35.58 9.15 40.45 9.15 40.45 11.62 32.62 11.62 32.62 11.62"/><polygon class="cls-1" points="45.43 7.21 45.43 11.62 42.53 11.62 42.53 7.2 38.48 0 41.62 0 44.02 4.59 46.34 0 49.47 0 45.43 7.21 45.43 7.21"/></g></g></svg>