<svg xmlns="http://www.w3.org/2000/svg" viewBox="0 0 102.13 29"><defs><style>.cls-1{isolation:isolate;}.cls-2{fill:#e01481;mix-blend-mode:color;}.cls-3{fill:#fff;}.cls-4{fill:#573275;}</style></defs><g class="cls-1"><g id="Layer_2" data-name="Layer 2"><g id="Layer_1-2" data-name="Layer 1"><rect class="cls-2" x="3" y="3" width="99.13" height="26" rx="5"/><rect class="cls-3" width="99.13" height="26" rx="5"/><path class="cls-4" d="M11.59,16.58V9.44H13.1v5.89H16v1.25Z"/><path class="cls-4" d="M21.71,16.58H17.6V9.44h4.11v1.24h-2.6v1.57h2.42v1.24H19.11v1.84h2.6Z"/><path class="cls-4" d="M28.24,16.58l-.52-1.7h-2.6l-.52,1.7H23l2.52-7.17h1.85l2.53,7.17Zm-.88-3L26.55,11q-.09-.32-.12-.48-.16.62-.93,3.09Z"/><path class="cls-4" d="M32.81,13.84v2.74H31.29V9.44h2.08a3.52,3.52,0,0,1,2.16.53,1.9,1.9,0,0,1,.7,1.61,1.91,1.91,0,0,1-.35,1.12,2.39,2.39,0,0,1-1,.77L37,16.58H35.32l-1.71-2.74Zm0-1.23h.49a1.89,1.89,0,0,0,1.06-.24.87.87,0,0,0,.34-.75.81.81,0,0,0-.35-.73,2.14,2.14,0,0,0-1.08-.21h-.46Z"/><path class="cls-4" d="M44.76,16.58H42.83l-3.1-5.4h0q.09,1.43.09,2v3.36H38.42V9.44h1.91l3.1,5.34h0c0-.92-.08-1.58-.08-2V9.44h1.37Z"/><path class="cls-4" d="M52.77,16.58,51.05,11h0q.09,1.71.09,2.28v3.32H49.75V9.44h2.06L53.5,14.9h0l1.79-5.46h2.06v7.14H56V13.2c0-.16,0-.35,0-.55s0-.77.06-1.66h0l-1.84,5.59Z"/><path class="cls-4" d="M66,13a3.84,3.84,0,0,1-.88,2.72,3.82,3.82,0,0,1-5,0A3.89,3.89,0,0,1,59.25,13a3.8,3.8,0,0,1,.88-2.72,3.85,3.85,0,0,1,5,0A3.89,3.89,0,0,1,66,13Zm-5.21,0a2.91,2.91,0,0,0,.46,1.8,1.58,1.58,0,0,0,1.35.6c1.21,0,1.81-.8,1.81-2.4s-.6-2.41-1.8-2.41a1.61,1.61,0,0,0-1.36.6A3,3,0,0,0,60.83,13Z"/><path class="cls-4" d="M69.42,13.84v2.74H67.91V9.44H70a3.53,3.53,0,0,1,2.15.53,1.9,1.9,0,0,1,.7,1.61,1.91,1.91,0,0,1-.35,1.12,2.39,2.39,0,0,1-1,.77l2.1,3.11H71.93l-1.71-2.74Zm0-1.23h.49A1.87,1.87,0,0,0,71,12.37a.87.87,0,0,0,.34-.75.81.81,0,0,0-.35-.73,2.14,2.14,0,0,0-1.08-.21h-.46Z"/><path class="cls-4" d="M79.15,16.58H75V9.44h4.12v1.24h-2.6v1.57H79v1.24H76.55v1.84h2.6Z"/><path class="cls-4" d="M88.11,12.25h-1.9v-1.9a.52.52,0,0,0-.53-.52h-.45a.52.52,0,0,0-.52.52v1.9h-1.9a.53.53,0,0,0-.53.52v.46a.53.53,0,0,0,.53.52h1.9v1.9a.52.52,0,0,0,.52.52h.45a.52.52,0,0,0,.53-.52v-1.9h1.9a.52.52,0,0,0,.52-.52v-.46A.52.52,0,0,0,88.11,12.25Z"/></g></g></g></svg>