<svg xmlns="http://www.w3.org/2000/svg" viewBox="0 0 84.33 53.09"><defs><style>.cls-1{isolation:isolate;}.cls-2{mix-blend-mode:overlay;opacity:0.6;}.cls-3{fill:#fff;}</style></defs><g class="cls-1"><g id="Layer_2" data-name="Layer 2"><g id="Layer_1-2" data-name="Layer 1"><g class="cls-2"><path class="cls-3" d="M33.94,8v2.54H31.4a.18.18,0,0,0-.17.17v.5a.18.18,0,0,0,.17.17h2.54v2.54a.16.16,0,0,0,.16.16h.51a.16.16,0,0,0,.16-.16V11.35h2.54a.18.18,0,0,0,.17-.17v-.5a.18.18,0,0,0-.17-.17H34.77V8a.16.16,0,0,0-.16-.16H34.1A.16.16,0,0,0,33.94,8Z"/><path class="cls-3" d="M33.94,23.59v2.54H31.4a.17.17,0,0,0-.17.17v.5a.17.17,0,0,0,.17.16h2.54V29.5a.17.17,0,0,0,.16.17h.51a.17.17,0,0,0,.16-.17V27h2.54a.17.17,0,0,0,.17-.16v-.5a.17.17,0,0,0-.17-.17H34.77V23.59a.17.17,0,0,0-.16-.17H34.1A.17.17,0,0,0,33.94,23.59Z"/><path class="cls-3" d="M18.32.16V2.71H15.78a.16.16,0,0,0-.16.16v.5a.17.17,0,0,0,.16.17h2.54V6.08a.17.17,0,0,0,.17.16H19a.16.16,0,0,0,.16-.16V3.54h2.54a.17.17,0,0,0,.17-.17v-.5a.16.16,0,0,0-.17-.16H19.15V.16A.16.16,0,0,0,19,0h-.5A.17.17,0,0,0,18.32.16Z"/><path class="cls-3" d="M18.32,15.78v2.54H15.78a.17.17,0,0,0-.16.17V19a.16.16,0,0,0,.16.16h2.54V21.7a.17.17,0,0,0,.17.16H19a.16.16,0,0,0,.16-.16V19.15h2.54a.16.16,0,0,0,.17-.16v-.5a.17.17,0,0,0-.17-.17H19.15V15.78a.16.16,0,0,0-.16-.16h-.5A.17.17,0,0,0,18.32,15.78Z"/><path class="cls-3" d="M18.32,31.4v2.54H15.78a.16.16,0,0,0-.16.17v.49a.16.16,0,0,0,.16.17h2.54v2.54a.18.18,0,0,0,.17.17H19a.17.17,0,0,0,.16-.17V34.77h2.54a.16.16,0,0,0,.17-.17v-.49a.16.16,0,0,0-.17-.17H19.15V31.4a.17.17,0,0,0-.16-.17h-.5A.18.18,0,0,0,18.32,31.4Z"/><path class="cls-3" d="M2.71,8v2.54H.17a.18.18,0,0,0-.17.17v.5a.18.18,0,0,0,.17.17H2.71v2.54a.16.16,0,0,0,.16.16h.5a.17.17,0,0,0,.17-.16V11.35H6.08a.17.17,0,0,0,.16-.17v-.5a.17.17,0,0,0-.16-.17H3.54V8a.17.17,0,0,0-.17-.16h-.5A.16.16,0,0,0,2.71,8Z"/><path class="cls-3" d="M2.71,23.59v2.54H.17A.17.17,0,0,0,0,26.3v.5A.17.17,0,0,0,.17,27H2.71V29.5a.17.17,0,0,0,.16.17h.5a.18.18,0,0,0,.17-.17V27H6.08a.16.16,0,0,0,.16-.16v-.5a.16.16,0,0,0-.16-.17H3.54V23.59a.18.18,0,0,0-.17-.17h-.5A.17.17,0,0,0,2.71,23.59Z"/><path class="cls-3" d="M65.17,8v2.54H62.63a.17.17,0,0,0-.16.17v.5a.17.17,0,0,0,.16.17h2.54v2.54a.17.17,0,0,0,.17.16h.5a.16.16,0,0,0,.16-.16V11.35h2.54a.18.18,0,0,0,.17-.17v-.5a.18.18,0,0,0-.17-.17H66V8a.16.16,0,0,0-.16-.16h-.5A.17.17,0,0,0,65.17,8Z"/><path class="cls-3" d="M65.17,23.59v2.54H62.63a.16.16,0,0,0-.16.17v.5a.16.16,0,0,0,.16.16h2.54V29.5a.18.18,0,0,0,.17.17h.5A.17.17,0,0,0,66,29.5V27h2.54a.17.17,0,0,0,.17-.16v-.5a.17.17,0,0,0-.17-.17H66V23.59a.17.17,0,0,0-.16-.17h-.5A.18.18,0,0,0,65.17,23.59Z"/><path class="cls-3" d="M49.55.16V2.71H47a.16.16,0,0,0-.17.16v.5a.17.17,0,0,0,.17.17h2.53V6.08a.17.17,0,0,0,.17.16h.5a.17.17,0,0,0,.17-.16V3.54h2.54a.17.17,0,0,0,.16-.17v-.5a.16.16,0,0,0-.16-.16H50.39V.16A.17.17,0,0,0,50.22,0h-.5A.17.17,0,0,0,49.55.16Z"/><path class="cls-3" d="M49.55,15.78v2.54H47a.17.17,0,0,0-.17.17V19a.16.16,0,0,0,.17.16h2.53V21.7a.17.17,0,0,0,.17.16h.5a.17.17,0,0,0,.17-.16V19.15h2.54a.16.16,0,0,0,.16-.16v-.5a.17.17,0,0,0-.16-.17H50.39V15.78a.17.17,0,0,0-.17-.16h-.5A.17.17,0,0,0,49.55,15.78Z"/><path class="cls-3" d="M49.55,31.4v2.54H47a.16.16,0,0,0-.17.17v.49a.16.16,0,0,0,.17.17h2.53v2.54a.18.18,0,0,0,.17.17h.5a.18.18,0,0,0,.17-.17V34.77h2.54a.16.16,0,0,0,.16-.17v-.49a.16.16,0,0,0-.16-.17H50.39V31.4a.18.18,0,0,0-.17-.17h-.5A.18.18,0,0,0,49.55,31.4Z"/><path class="cls-3" d="M33.94,8v2.54H31.4a.18.18,0,0,0-.17.17v.5a.18.18,0,0,0,.17.17h2.54v2.54a.16.16,0,0,0,.16.16h.51a.16.16,0,0,0,.16-.16V11.35h2.54a.18.18,0,0,0,.17-.17v-.5a.18.18,0,0,0-.17-.17H34.77V8a.16.16,0,0,0-.16-.16H34.1A.16.16,0,0,0,33.94,8Z"/><path class="cls-3" d="M33.94,23.59v2.54H31.4a.17.17,0,0,0-.17.17v.5a.17.17,0,0,0,.17.16h2.54V29.5a.17.17,0,0,0,.16.17h.51a.17.17,0,0,0,.16-.17V27h2.54a.17.17,0,0,0,.17-.16v-.5a.17.17,0,0,0-.17-.17H34.77V23.59a.17.17,0,0,0-.16-.17H34.1A.17.17,0,0,0,33.94,23.59Z"/><path class="cls-3" d="M80.79.16V2.71H78.25a.17.17,0,0,0-.17.16v.5a.18.18,0,0,0,.17.17h2.54V6.08a.16.16,0,0,0,.16.16h.51a.16.16,0,0,0,.16-.16V3.54h2.54a.18.18,0,0,0,.17-.17v-.5a.17.17,0,0,0-.17-.16H81.62V.16A.16.16,0,0,0,81.46,0H81A.16.16,0,0,0,80.79.16Z"/><path class="cls-3" d="M80.79,15.78v2.54H78.25a.18.18,0,0,0-.17.17V19a.17.17,0,0,0,.17.16h2.54V21.7a.16.16,0,0,0,.16.16h.51a.16.16,0,0,0,.16-.16V19.15h2.54a.17.17,0,0,0,.17-.16v-.5a.18.18,0,0,0-.17-.17H81.62V15.78a.16.16,0,0,0-.16-.16H81A.16.16,0,0,0,80.79,15.78Z"/><path class="cls-3" d="M80.79,31.4v2.54H78.25a.17.17,0,0,0-.17.17v.49a.17.17,0,0,0,.17.17h2.54v2.54a.17.17,0,0,0,.16.17h.51a.17.17,0,0,0,.16-.17V34.77h2.54a.17.17,0,0,0,.17-.17v-.49a.17.17,0,0,0-.17-.17H81.62V31.4a.17.17,0,0,0-.16-.17H81A.17.17,0,0,0,80.79,31.4Z"/><path class="cls-3" d="M65.17,8v2.54H62.63a.17.17,0,0,0-.16.17v.5a.17.17,0,0,0,.16.17h2.54v2.54a.17.17,0,0,0,.17.16h.5a.16.16,0,0,0,.16-.16V11.35h2.54a.18.18,0,0,0,.17-.17v-.5a.18.18,0,0,0-.17-.17H66V8a.16.16,0,0,0-.16-.16h-.5A.17.17,0,0,0,65.17,8Z"/><path class="cls-3" d="M65.17,23.59v2.54H62.63a.16.16,0,0,0-.16.17v.5a.16.16,0,0,0,.16.16h2.54V29.5a.18.18,0,0,0,.17.17h.5A.17.17,0,0,0,66,29.5V27h2.54a.17.17,0,0,0,.17-.16v-.5a.17.17,0,0,0-.17-.17H66V23.59a.17.17,0,0,0-.16-.17h-.5A.18.18,0,0,0,65.17,23.59Z"/><path class="cls-3" d="M33.94,39.21v2.54H31.4a.17.17,0,0,0-.17.16v.5a.18.18,0,0,0,.17.17h2.54v2.54a.16.16,0,0,0,.16.16h.51a.16.16,0,0,0,.16-.16V42.58h2.54a.18.18,0,0,0,.17-.17v-.5a.17.17,0,0,0-.17-.16H34.77V39.21a.16.16,0,0,0-.16-.17H34.1A.16.16,0,0,0,33.94,39.21Z"/><path class="cls-3" d="M18.32,31.4v2.54H15.78a.16.16,0,0,0-.16.17v.49a.16.16,0,0,0,.16.17h2.54v2.54a.18.18,0,0,0,.17.17H19a.17.17,0,0,0,.16-.17V34.77h2.54a.16.16,0,0,0,.17-.17v-.49a.16.16,0,0,0-.17-.17H19.15V31.4a.17.17,0,0,0-.16-.17h-.5A.18.18,0,0,0,18.32,31.4Z"/><path class="cls-3" d="M18.32,47v2.54H15.78a.17.17,0,0,0-.16.17v.5a.17.17,0,0,0,.16.17h2.54v2.54a.17.17,0,0,0,.17.16H19a.16.16,0,0,0,.16-.16V50.39h2.54a.17.17,0,0,0,.17-.17v-.5a.17.17,0,0,0-.17-.17H19.15V47a.16.16,0,0,0-.16-.16h-.5A.17.17,0,0,0,18.32,47Z"/><path class="cls-3" d="M2.71,39.21v2.54H.17a.17.17,0,0,0-.17.16v.5a.18.18,0,0,0,.17.17H2.71v2.54a.16.16,0,0,0,.16.16h.5a.17.17,0,0,0,.17-.16V42.58H6.08a.17.17,0,0,0,.16-.17v-.5a.16.16,0,0,0-.16-.16H3.54V39.21A.17.17,0,0,0,3.37,39h-.5A.16.16,0,0,0,2.71,39.21Z"/><path class="cls-3" d="M65.17,39.21v2.54H62.63a.16.16,0,0,0-.16.16v.5a.17.17,0,0,0,.16.17h2.54v2.54a.17.17,0,0,0,.17.16h.5a.16.16,0,0,0,.16-.16V42.58h2.54a.18.18,0,0,0,.17-.17v-.5a.17.17,0,0,0-.17-.16H66V39.21a.16.16,0,0,0-.16-.17h-.5A.17.17,0,0,0,65.17,39.21Z"/><path class="cls-3" d="M49.55,31.4v2.54H47a.16.16,0,0,0-.17.17v.49a.16.16,0,0,0,.17.17h2.53v2.54a.18.18,0,0,0,.17.17h.5a.18.18,0,0,0,.17-.17V34.77h2.54a.16.16,0,0,0,.16-.17v-.49a.16.16,0,0,0-.16-.17H50.39V31.4a.18.18,0,0,0-.17-.17h-.5A.18.18,0,0,0,49.55,31.4Z"/><path class="cls-3" d="M49.55,47v2.54H47a.17.17,0,0,0-.17.17v.5a.17.17,0,0,0,.17.17h2.53v2.54a.17.17,0,0,0,.17.16h.5a.17.17,0,0,0,.17-.16V50.39h2.54a.17.17,0,0,0,.16-.17v-.5a.17.17,0,0,0-.16-.17H50.39V47a.17.17,0,0,0-.17-.16h-.5A.17.17,0,0,0,49.55,47Z"/><path class="cls-3" d="M33.94,39.21v2.54H31.4a.17.17,0,0,0-.17.16v.5a.18.18,0,0,0,.17.17h2.54v2.54a.16.16,0,0,0,.16.16h.51a.16.16,0,0,0,.16-.16V42.58h2.54a.18.18,0,0,0,.17-.17v-.5a.17.17,0,0,0-.17-.16H34.77V39.21a.16.16,0,0,0-.16-.17H34.1A.16.16,0,0,0,33.94,39.21Z"/><path class="cls-3" d="M80.79,31.4v2.54H78.25a.17.17,0,0,0-.17.17v.49a.17.17,0,0,0,.17.17h2.54v2.54a.17.17,0,0,0,.16.17h.51a.17.17,0,0,0,.16-.17V34.77h2.54a.17.17,0,0,0,.17-.17v-.49a.17.17,0,0,0-.17-.17H81.62V31.4a.17.17,0,0,0-.16-.17H81A.17.17,0,0,0,80.79,31.4Z"/><path class="cls-3" d="M80.79,47v2.54H78.25a.18.18,0,0,0-.17.17v.5a.18.18,0,0,0,.17.17h2.54v2.54a.16.16,0,0,0,.16.16h.51a.16.16,0,0,0,.16-.16V50.39h2.54a.18.18,0,0,0,.17-.17v-.5a.18.18,0,0,0-.17-.17H81.62V47a.16.16,0,0,0-.16-.16H81A.16.16,0,0,0,80.79,47Z"/><path class="cls-3" d="M65.17,39.21v2.54H62.63a.16.16,0,0,0-.16.16v.5a.17.17,0,0,0,.16.17h2.54v2.54a.17.17,0,0,0,.17.16h.5a.16.16,0,0,0,.16-.16V42.58h2.54a.18.18,0,0,0,.17-.17v-.5a.17.17,0,0,0-.17-.16H66V39.21a.16.16,0,0,0-.16-.17h-.5A.17.17,0,0,0,65.17,39.21Z"/></g></g></g></g></svg>